<svg width="17" height="17" viewBox="0 0 17 17" fill="none" xmlns="http://www.w3.org/2000/svg">
<path d="M5.33702 8.0408C5.33702 6.56679 6.53127 5.37155 8.00486 5.37155C9.47845 5.37155 10.6733 6.56679 10.6733 8.0408C10.6733 9.51481 9.47845 10.7101 8.00486 10.7101C6.53127 10.7101 5.33702 9.51481 5.33702 8.0408ZM3.89449 8.0408C3.89449 10.3116 5.7347 12.1524 8.00486 12.1524C10.275 12.1524 12.1152 10.3116 12.1152 8.0408C12.1152 5.76999 10.275 3.92925 8.00486 3.92925C5.7347 3.92925 3.89449 5.76999 3.89449 8.0408ZM11.3174 3.76622C11.3173 3.95626 11.3736 4.14205 11.479 4.30011C11.5845 4.45816 11.7345 4.58138 11.91 4.65417C12.0855 4.72697 12.2786 4.74607 12.465 4.70907C12.6513 4.67207 12.8225 4.58063 12.9569 4.4463C13.0913 4.31198 13.1829 4.14081 13.22 3.95444C13.2571 3.76806 13.2382 3.57486 13.1656 3.39926C13.0929 3.22366 12.9699 3.07354 12.8119 2.9679C12.654 2.86226 12.4683 2.80583 12.2783 2.80575H12.278C12.0233 2.80587 11.7791 2.90709 11.599 3.08718C11.4189 3.26726 11.3176 3.51149 11.3174 3.76622ZM4.77092 14.5584C3.99049 14.5228 3.5663 14.3928 3.2844 14.283C2.91067 14.1374 2.64401 13.9641 2.36365 13.684C2.08329 13.404 1.90975 13.1375 1.7649 12.7637C1.65501 12.4818 1.52501 12.0574 1.48953 11.2767C1.45072 10.4327 1.44297 10.1791 1.44297 8.04087C1.44297 5.90258 1.45136 5.64975 1.48953 4.80503C1.52507 4.02437 1.65603 3.60076 1.7649 3.31808C1.91039 2.94424 2.08368 2.67751 2.36365 2.39707C2.64363 2.11663 2.91003 1.94304 3.2844 1.79814C3.56617 1.68822 3.99049 1.55818 4.77092 1.52269C5.61469 1.48388 5.86816 1.47612 8.00486 1.47612C10.1416 1.47612 10.3953 1.48452 11.2398 1.52269C12.0202 1.55825 12.4437 1.68924 12.7263 1.79814C13.1 1.94304 13.3667 2.11701 13.647 2.39707C13.9274 2.67713 14.1003 2.94424 14.2458 3.31808C14.3557 3.59993 14.4857 4.02437 14.5212 4.80503C14.56 5.64975 14.5677 5.90258 14.5677 8.04087C14.5677 10.1791 14.56 10.432 14.5212 11.2767C14.4856 12.0574 14.355 12.4817 14.2458 12.7637C14.1003 13.1375 13.927 13.4042 13.647 13.684C13.3671 13.9638 13.1 14.1374 12.7263 14.283C12.4445 14.3929 12.0202 14.5229 11.2398 14.5584C10.396 14.5972 10.1425 14.605 8.00486 14.605C5.8672 14.605 5.61444 14.5972 4.77092 14.5584ZM4.70464 0.0821825C3.85248 0.121001 3.27018 0.256161 2.76165 0.454097C2.235 0.658502 1.78917 0.93273 1.34365 1.37767C0.898136 1.82261 0.624692 2.26928 0.420345 2.79608C0.222466 3.30508 0.0873454 3.88723 0.0485381 4.73963C0.00909045 5.59338 6.10352e-05 5.86633 6.10352e-05 8.0408C6.10352e-05 10.2153 0.00909045 10.4882 0.0485381 11.342C0.0873454 12.1944 0.222466 12.7765 0.420345 13.2855C0.624692 13.812 0.8982 14.2592 1.34365 14.7039C1.7891 15.1487 2.235 15.4225 2.76165 15.6275C3.27114 15.8254 3.85248 15.9606 4.70464 15.9994C5.55859 16.0382 5.83101 16.0479 8.00486 16.0479C10.1787 16.0479 10.4516 16.0389 11.3051 15.9994C12.1573 15.9606 12.7392 15.8254 13.2481 15.6275C13.7744 15.4225 14.2206 15.1489 14.6661 14.7039C15.1116 14.259 15.3845 13.812 15.5894 13.2855C15.7873 12.7765 15.923 12.1944 15.9612 11.342C16 10.4876 16.009 10.2153 16.009 8.0408C16.009 5.86633 16 5.59338 15.9612 4.73963C15.9224 3.88716 15.7873 3.30476 15.5894 2.79608C15.3845 2.2696 15.1109 1.82331 14.6661 1.37767C14.2213 0.932025 13.7744 0.658502 13.2487 0.454097C12.7392 0.256161 12.1572 0.12036 11.3057 0.0821825C10.4522 0.043364 10.1793 0.0336914 8.0055 0.0336914C5.83165 0.0336914 5.55859 0.0427234 4.70464 0.0821825Z" fill="#333140"/>
<path d="M5.33702 8.0408C5.33702 6.56679 6.53127 5.37155 8.00486 5.37155C9.47845 5.37155 10.6733 6.56679 10.6733 8.0408C10.6733 9.51481 9.47845 10.7101 8.00486 10.7101C6.53127 10.7101 5.33702 9.51481 5.33702 8.0408ZM3.89449 8.0408C3.89449 10.3116 5.7347 12.1524 8.00486 12.1524C10.275 12.1524 12.1152 10.3116 12.1152 8.0408C12.1152 5.76999 10.275 3.92925 8.00486 3.92925C5.7347 3.92925 3.89449 5.76999 3.89449 8.0408ZM11.3174 3.76622C11.3173 3.95626 11.3736 4.14205 11.479 4.30011C11.5845 4.45816 11.7345 4.58138 11.91 4.65417C12.0855 4.72697 12.2786 4.74607 12.465 4.70907C12.6513 4.67207 12.8225 4.58063 12.9569 4.4463C13.0913 4.31198 13.1829 4.14081 13.22 3.95444C13.2571 3.76806 13.2382 3.57486 13.1656 3.39926C13.0929 3.22366 12.9699 3.07354 12.8119 2.9679C12.654 2.86226 12.4683 2.80583 12.2783 2.80575H12.278C12.0233 2.80587 11.7791 2.90709 11.599 3.08718C11.4189 3.26726 11.3176 3.51149 11.3174 3.76622ZM4.77092 14.5584C3.99049 14.5228 3.5663 14.3928 3.2844 14.283C2.91067 14.1374 2.64401 13.9641 2.36365 13.684C2.08329 13.404 1.90975 13.1375 1.7649 12.7637C1.65501 12.4818 1.52501 12.0574 1.48953 11.2767C1.45072 10.4327 1.44297 10.1791 1.44297 8.04087C1.44297 5.90258 1.45136 5.64975 1.48953 4.80503C1.52507 4.02437 1.65603 3.60076 1.7649 3.31808C1.91039 2.94424 2.08368 2.67751 2.36365 2.39707C2.64363 2.11663 2.91003 1.94304 3.2844 1.79814C3.56617 1.68822 3.99049 1.55818 4.77092 1.52269C5.61469 1.48388 5.86816 1.47612 8.00486 1.47612C10.1416 1.47612 10.3953 1.48452 11.2398 1.52269C12.0202 1.55825 12.4437 1.68924 12.7263 1.79814C13.1 1.94304 13.3667 2.11701 13.647 2.39707C13.9274 2.67713 14.1003 2.94424 14.2458 3.31808C14.3557 3.59993 14.4857 4.02437 14.5212 4.80503C14.56 5.64975 14.5677 5.90258 14.5677 8.04087C14.5677 10.1791 14.56 10.432 14.5212 11.2767C14.4856 12.0574 14.355 12.4817 14.2458 12.7637C14.1003 13.1375 13.927 13.4042 13.647 13.684C13.3671 13.9638 13.1 14.1374 12.7263 14.283C12.4445 14.3929 12.0202 14.5229 11.2398 14.5584C10.396 14.5972 10.1425 14.605 8.00486 14.605C5.8672 14.605 5.61444 14.5972 4.77092 14.5584ZM4.70464 0.0821825C3.85248 0.121001 3.27018 0.256161 2.76165 0.454097C2.235 0.658502 1.78917 0.93273 1.34365 1.37767C0.898136 1.82261 0.624692 2.26928 0.420345 2.79608C0.222466 3.30508 0.0873454 3.88723 0.0485381 4.73963C0.00909045 5.59338 6.10352e-05 5.86633 6.10352e-05 8.0408C6.10352e-05 10.2153 0.00909045 10.4882 0.0485381 11.342C0.0873454 12.1944 0.222466 12.7765 0.420345 13.2855C0.624692 13.812 0.8982 14.2592 1.34365 14.7039C1.7891 15.1487 2.235 15.4225 2.76165 15.6275C3.27114 15.8254 3.85248 15.9606 4.70464 15.9994C5.55859 16.0382 5.83101 16.0479 8.00486 16.0479C10.1787 16.0479 10.4516 16.0389 11.3051 15.9994C12.1573 15.9606 12.7392 15.8254 13.2481 15.6275C13.7744 15.4225 14.2206 15.1489 14.6661 14.7039C15.1116 14.259 15.3845 13.812 15.5894 13.2855C15.7873 12.7765 15.923 12.1944 15.9612 11.342C16 10.4876 16.009 10.2153 16.009 8.0408C16.009 5.86633 16 5.59338 15.9612 4.73963C15.9224 3.88716 15.7873 3.30476 15.5894 2.79608C15.3845 2.2696 15.1109 1.82331 14.6661 1.37767C14.2213 0.932025 13.7744 0.658502 13.2487 0.454097C12.7392 0.256161 12.1572 0.12036 11.3057 0.0821825C10.4522 0.043364 10.1793 0.0336914 8.0055 0.0336914C5.83165 0.0336914 5.55859 0.0427234 4.70464 0.0821825Z" fill="#333140"/>
</svg>
