<svg width="19" height="14" viewBox="0 0 19 14" fill="none" xmlns="http://www.w3.org/2000/svg">
<path d="M17.9002 2.59864C17.6913 1.81319 17.0732 1.19355 16.2869 0.981189C14.8651 0.600098 9.16035 0.600098 9.16035 0.600098C9.16035 0.600098 3.45853 0.600098 2.0338 0.981189C1.25035 1.19064 0.632288 1.81028 0.420465 2.59864C0.0403442 4.0241 0.0403442 7.0001 0.0403442 7.0001C0.0403442 7.0001 0.0403442 9.9761 0.420465 11.4016C0.629387 12.187 1.24745 12.8066 2.0338 13.019C3.45853 13.4001 9.16035 13.4001 9.16035 13.4001C9.16035 13.4001 14.8651 13.4001 16.2869 13.019C17.0703 12.8096 17.6884 12.1899 17.9002 11.4016C18.2803 9.9761 18.2803 7.0001 18.2803 7.0001C18.2803 7.0001 18.2803 4.0241 17.9002 2.59864Z" fill="#333140"/>
<path d="M7.33809 9.74337L12.0765 7.0001L7.33809 4.25682V9.74337Z" fill="white"/>
</svg>
