<svg width="22" height="22" viewBox="0 0 22 22" fill="none" xmlns="http://www.w3.org/2000/svg">
<g clip-path="url(#clip0_57_921)">
<path d="M14.5275 0H7.47249C3.35104 0 0 3.35104 0 7.47249V14.5313C0 18.649 3.35104 22.0038 7.47249 22.0038H14.5313C18.649 22.0038 22.0038 18.6528 22.0038 14.5313V7.47249C22 3.35104 18.649 0 14.5275 0ZM20.1025 14.5275C20.1025 17.6015 17.6015 20.1025 14.5275 20.1025H7.47249C4.39848 20.1025 1.89753 17.6015 1.89753 14.5275V7.47249C1.89753 4.39848 4.39848 1.89753 7.47249 1.89753H14.5313C17.6053 1.89753 20.1063 4.39848 20.1063 7.47249V14.5313L20.1025 14.5275Z" fill="#333140"/>
<path d="M12.1366 5.28662H9.85955V9.85968H5.2865V12.1367H9.85955V16.7136H12.1366V12.1367H16.7134V9.85968H12.1366V5.28662Z" fill="#333140"/>
</g>
<defs>
<clipPath id="clip0_57_921">
<rect width="22" height="22" fill="white"/>
</clipPath>
</defs>
</svg>
