<svg width="32" height="32" viewBox="0 0 32 32" fill="none" xmlns="http://www.w3.org/2000/svg">
<rect width="32" height="32" rx="16" fill="#1D1C2C"/>
<path d="M16 18.6668C17.4728 18.6668 18.6667 17.4729 18.6667 16.0002C18.6667 14.5274 17.4728 13.3335 16 13.3335C14.5273 13.3335 13.3334 14.5274 13.3334 16.0002C13.3334 17.4729 14.5273 18.6668 16 18.6668Z" fill="#F2EFED"/>
<path d="M13.5 7.6665L11.975 9.33317H9.33329C8.41663 9.33317 7.66663 10.0832 7.66663 10.9998V20.9998C7.66663 21.9165 8.41663 22.6665 9.33329 22.6665H22.6666C23.5833 22.6665 24.3333 21.9165 24.3333 20.9998V10.9998C24.3333 10.0832 23.5833 9.33317 22.6666 9.33317H20.025L18.5 7.6665H13.5ZM16 20.1665C13.7 20.1665 11.8333 18.2998 11.8333 15.9998C11.8333 13.6998 13.7 11.8332 16 11.8332C18.3 11.8332 20.1666 13.6998 20.1666 15.9998C20.1666 18.2998 18.3 20.1665 16 20.1665Z" fill="#F2EFED"/>
</svg>
