<svg width="21" height="22" viewBox="0 0 21 22" fill="none" xmlns="http://www.w3.org/2000/svg">
<path d="M11.6287 0.597305C10.8323 -0.199102 9.54491 -0.199102 8.7485 0.597305L0.835329 8.51048C0.302395 9.04341 0 9.76796 0 10.5254V20.5434C0 21.1063 0.458084 21.5644 1.02096 21.5644H7.31437C7.87725 21.5644 8.33533 21.1063 8.33533 20.5434V13.8638C8.33533 13.6512 8.50898 13.4775 8.72156 13.4775H11.6557C11.8683 13.4775 12.0419 13.6512 12.0419 13.8638V20.5434C12.0419 21.1063 12.5 21.5644 13.0629 21.5644H19.3563C19.9192 21.5644 20.3772 21.1063 20.3772 20.5434V10.5225C20.3772 9.76797 20.0778 9.04341 19.5419 8.50749L11.6287 0.597305Z" fill="#231815"/>
</svg>
