<svg width="20" height="21" viewBox="0 0 20 21" fill="none" xmlns="http://www.w3.org/2000/svg">
<path d="M9.64243 9.95898C4.32597 9.95898 0 14.3088 0 19.6521C0 20.0638 0.334144 20.398 0.745856 20.398H18.542C18.9537 20.398 19.2878 20.0638 19.2878 19.6521C19.2878 14.3058 14.9619 9.95898 9.64541 9.95898H9.64243ZM1.52453 18.9063C1.90044 14.7325 5.39702 11.4507 9.64243 11.4507C13.8878 11.4507 17.3844 14.7325 17.7603 18.9063H1.52453Z" fill="#231815"/>
<path d="M14.1507 4.50796C14.1507 2.02276 12.1279 0 9.64272 0C7.15753 0 5.13477 2.02276 5.13477 4.50796C5.13477 6.99315 7.15753 9.01591 9.64272 9.01591C12.1279 9.01591 14.1507 6.99315 14.1507 4.50796ZM6.62648 4.50796C6.62648 2.8432 7.98095 1.49171 9.64272 1.49171C11.3045 1.49171 12.659 2.84619 12.659 4.50796C12.659 6.16972 11.3045 7.5242 9.64272 7.5242C7.98095 7.5242 6.62648 6.16972 6.62648 4.50796Z" fill="#231815"/>
</svg>
