<svg width="21" height="21" viewBox="0 0 21 21" fill="none" xmlns="http://www.w3.org/2000/svg">
<path d="M9.38287 18.7628C11.6771 18.7628 13.7775 17.9334 15.4094 16.564C15.4154 16.5699 15.4183 16.5759 15.4213 16.5789L18.9119 20.1113C19.0671 20.2694 19.2759 20.3559 19.4967 20.3559C19.7175 20.3559 19.9203 20.2724 20.0725 20.1202C20.3947 19.801 20.3977 19.2819 20.0785 18.9597L16.5878 15.4273C16.5878 15.4273 16.5729 15.4154 16.564 15.4094C17.9364 13.7775 18.7628 11.6741 18.7628 9.38287C18.7628 4.20961 14.5532 0 9.37989 0C4.20663 0 0 4.20663 0 9.37989C0 14.5531 4.20961 18.7628 9.38287 18.7628ZM9.38287 1.6379C13.6522 1.6379 17.1249 5.11061 17.1249 9.37989C17.1249 13.6492 13.6522 17.1219 9.38287 17.1219C5.11359 17.1219 1.64088 13.6492 1.64088 9.37989C1.64088 5.11061 5.11359 1.6379 9.38287 1.6379Z" fill="#231815"/>
</svg>
